<svg id="Component_1_1" data-name="Component 1 – 1" xmlns="http://www.w3.org/2000/svg" xmlns:xlink="http://www.w3.org/1999/xlink" width="464" height="115.116" viewBox="0 0 464 115.116">
  <defs>
    <clipPath id="clip-path">
      <rect id="Rectangle_2" data-name="Rectangle 2" width="229.513" height="106.233" fill="none"/>
    </clipPath>
  </defs>
  <g id="Group_2" data-name="Group 2">
    <path id="Path_1" data-name="Path 1" d="M22.311,81.428,14.62,94.35l-7.9-12.922H0v24.251H7.448V95.008l5.266,8.488h3.6l5.266-8.869.069,11.052H29.1l-.07-24.251Z" fill="#fff"/>
    <path id="Path_2" data-name="Path 2" d="M33.05,81.428v24.251H53.213V99.512H41.088V96.325H51.342v-5.89H41.088V87.6H52.763V81.428Z" fill="#fff"/>
    <path id="Path_3" data-name="Path 3" d="M56.365,81.428v24.251H76.527V99.512H64.4V96.325H74.657v-5.89H64.4V87.6H76.077V81.428Z" fill="#fff"/>
    <path id="Path_4" data-name="Path 4" d="M77.844,81.428v6.34h7.1v17.911h8.175V87.768h7.1v-6.34Z" fill="#fff"/>
    <g id="Group_2-2" data-name="Group 2">
      <g id="Group_1" data-name="Group 1" clip-path="url(#clip-path)">
        <path id="Path_5" data-name="Path 5" d="M105.506,105.557a15.738,15.738,0,0,1-4.694-1.819l2.633-5.958a16.754,16.754,0,0,0,3.88,1.611,15.171,15.171,0,0,0,4.122.606,6.373,6.373,0,0,0,2.425-.329,1.059,1.059,0,0,0,.728-.988q0-.761-.953-1.143a20.468,20.468,0,0,0-3.135-.831,35.491,35.491,0,0,1-4.677-1.265,7.958,7.958,0,0,1-3.256-2.217,6.011,6.011,0,0,1-1.386-4.175,7.188,7.188,0,0,1,1.282-4.157,8.463,8.463,0,0,1,3.828-2.944,15.9,15.9,0,0,1,6.184-1.075,22.516,22.516,0,0,1,4.9.537,15.4,15.4,0,0,1,4.244,1.577l-2.46,5.924a15.037,15.037,0,0,0-6.756-1.8q-3.151,0-3.152,1.525,0,.728.935,1.091a19.855,19.855,0,0,0,3.084.779,31.736,31.736,0,0,1,4.677,1.2,8.123,8.123,0,0,1,3.308,2.2,5.9,5.9,0,0,1,1.4,4.157,7.111,7.111,0,0,1-1.282,4.14,8.627,8.627,0,0,1-3.828,2.944,15.666,15.666,0,0,1-6.184,1.092,25.46,25.46,0,0,1-5.872-.676" fill="#fff"/>
        <path id="Path_6" data-name="Path 6" d="M146.749,105.679l-.069-11.051-5.266,8.869h-3.6l-5.266-8.488v10.67H125.1V81.428h6.72l7.9,12.923,7.691-12.923h6.721l.07,24.251Z" fill="#fff"/>
        <path id="Path_7" data-name="Path 7" d="M178.31,99.512v6.167H158.147V81.428H177.86V87.6H166.185v2.84h10.254v5.89H166.185v3.187Z" fill="#fff"/>
        <path id="Path_8" data-name="Path 8" d="M186.728,87.768h-7.1v-6.34h22.38v6.34h-7.1v17.911h-8.176Z" fill="#fff"/>
        <path id="Path_9" data-name="Path 9" d="M219.432,101.452h-9.215l-1.629,4.227h-8.314l10.6-24.251h8.037l10.6,24.251H221.06Zm-2.252-5.889-2.356-6.1-2.355,6.1Z" fill="#fff"/>
        <path id="Path_10" data-name="Path 10" d="M84.714,48.046c.029-.268.064-.555.105-.832l.069-.459c.014-.1.027-.19.043-.281l.024-.129c.03-.183.065-.354.1-.537l.027-.147c.016-.086.032-.169.048-.25.054-.268.113-.518.172-.773l.029-.134a30.142,30.142,0,0,1,.856-2.916,29.271,29.271,0,0,1,3.591-6.994l.029-.043a2.42,2.42,0,0,1,1.559-1,2.512,2.512,0,0,1,.424-.037A2.42,2.42,0,0,1,93.77,37.31l-.037.048a24.394,24.394,0,0,0-4.315,12.6v.08c0,.207-.016.414-.024.618v1.39a4.36,4.36,0,0,0,.021.536v.161c.016.228.03.456.051.692A24.465,24.465,0,0,0,93.759,65.3a2.415,2.415,0,0,1-.6,3.362h0a2.377,2.377,0,0,1-1.371.432A2.415,2.415,0,0,1,89.8,68.057a29.639,29.639,0,0,1-2.452-4.244l-.019-.035a.924.924,0,0,1-.048-.094c-.057-.121-.113-.247-.167-.373l-.083-.185q-.171-.39-.33-.781l-.043-.1c-.1-.242-.19-.488-.281-.733l-.065-.177c-.078-.212-.156-.432-.231-.652l-.091-.268c-.059-.183-.115-.368-.171-.556-.041-.126-.081-.254-.118-.383s-.083-.295-.124-.443l-.137-.515-.064-.268-.013-.054c-.051-.215-.1-.429-.148-.646l-.043-.2c-.053-.269-.1-.513-.153-.776L85,56.506c-.151-.826-.269-1.636-.336-2.414a29.034,29.034,0,0,1,.043-5.968Z" fill="#fff"/>
        <path id="Path_11" data-name="Path 11" d="M96.452,30.7a2.415,2.415,0,0,0,3.363.6l0,0,.159-.11a24.434,24.434,0,0,1,11.714-4.178h.027c.223-.019.448-.032.671-.045h.145c.185,0,.365-.016.537-.022h1.376a5.511,5.511,0,0,1,.655.027h.032a24.483,24.483,0,0,1,12.611,4.344,2.415,2.415,0,1,0,2.764-3.96,29.191,29.191,0,0,0-4.258-2.464l-.051-.026-.05-.027c-.419-.2-.878-.4-1.4-.609h-.027c-.268-.1-.52-.2-.781-.3l-.131-.048c-.228-.083-.456-.164-.687-.242l-.246-.083c-.188-.062-.382-.121-.575-.18l-.373-.112-.448-.124c-.171-.048-.34-.094-.512-.137l-.312-.077q-.33-.081-.66-.153l-.171-.035c-.269-.059-.537-.11-.805-.161h-.043c-.832-.153-1.653-.268-2.437-.343a29.224,29.224,0,0,0-4.089-.1h-.019c-.3,0-.6.03-.885.054h-.1c-.287.022-.569.048-.853.078l-.123.016q-.4.045-.805.1l-.368.054c-.123.018-.244.035-.365.056l-.166.03-.29.053-.19.038-.441.086c-.174.034-.346.075-.52.112l-.161.038-.223.05c-.282.067-.561.14-.861.22h-.043c-.679.185-1.342.392-1.972.615a29.186,29.186,0,0,0-7,3.59l-.029.019a2.4,2.4,0,0,0-.993,1.556,2.368,2.368,0,0,0,.384,1.79Z" fill="#fff"/>
        <path id="Path_12" data-name="Path 12" d="M131.031,68.184a2.414,2.414,0,0,1-3.268.472l-.054-.037A24.417,24.417,0,0,0,115.066,64.3h-.033c-.212-.013-.424-.018-.636-.024h-1.373l-.537.022h-.15a24.417,24.417,0,0,0-12.566,4.352,2.387,2.387,0,0,1-1.373.438,2.657,2.657,0,0,1-.427-.038,2.416,2.416,0,0,1-1.562-3.757,2.333,2.333,0,0,1,.593-.6,29.347,29.347,0,0,1,4.253-2.468l.048-.024.057-.03a28.239,28.239,0,0,1,3.147-1.253l.062-.021c.268-.086.523-.169.791-.25l.135-.04c.233-.07.472-.137.713-.2l.228-.061.628-.142.325-.076c.172-.04.346-.075.518-.11l.443-.088.418-.075.537-.091.268-.038h.072c.213-.029.422-.059.634-.083l.408-.048.3-.032h.145l.287-.025q.4-.031.805-.056h.073c.3-.016.593-.027.9-.032a29.27,29.27,0,0,1,3.733.161l.155.019c.253.029.5.059.752.094l.483.072.287.043.118.024c.182.029.354.062.537.1l.174.032.207.04c.3.062.59.126.9.2a28.212,28.212,0,0,1,2.933.859,29.213,29.213,0,0,1,7.009,3.593l.061.042a2.415,2.415,0,0,1,.663,3.25Z" fill="#fff"/>
        <path id="Path_13" data-name="Path 13" d="M113.668,19.319a9.9,9.9,0,0,0,10.1-9.66,10.107,10.107,0,0,0-20.194.006,9.89,9.89,0,0,0,10.092,9.654m0-14.586a5.179,5.179,0,0,1,5.383,4.932,5.4,5.4,0,0,1-10.766,0,5.172,5.172,0,0,1,5.383-4.932" fill="#fff"/>
        <path id="Path_14" data-name="Path 14" d="M123.77,47a10.114,10.114,0,0,0-20.207,0,10.114,10.114,0,0,0,20.207,0m-10.1-4.926a5.177,5.177,0,0,1,5.383,4.932,5.4,5.4,0,0,1-10.766,0,5.177,5.177,0,0,1,5.383-4.932" fill="#fff"/>
        <path id="Path_15" data-name="Path 15" d="M72.353,41.2a10.113,10.113,0,1,0,9.66,10.1,9.9,9.9,0,0,0-9.66-10.1m0,15.485A5.4,5.4,0,1,1,77.285,51.3a5.179,5.179,0,0,1-4.932,5.383" fill="#fff"/>
        <path id="Path_16" data-name="Path 16" d="M145.532,51.3a9.669,9.669,0,1,0,9.66-10.1,9.9,9.9,0,0,0-9.66,10.1m4.728,0a4.952,4.952,0,1,1,4.932,5.383A5.177,5.177,0,0,1,150.26,51.3" fill="#fff"/>
        <path id="Path_17" data-name="Path 17" d="M142.819,48.046c-.029-.268-.064-.555-.1-.832l-.069-.459c-.014-.1-.027-.19-.043-.281l-.024-.129c-.03-.183-.065-.354-.1-.537l-.027-.147c-.016-.086-.032-.169-.048-.25-.054-.268-.113-.518-.172-.773l-.029-.134a30.144,30.144,0,0,0-.856-2.916,29.271,29.271,0,0,0-3.591-6.994l-.029-.043a2.42,2.42,0,0,0-1.559-1,2.511,2.511,0,0,0-.424-.037,2.42,2.42,0,0,0-1.983,3.794l.037.048a24.394,24.394,0,0,1,4.315,12.6v.08c0,.207.016.414.024.618v1.39a4.359,4.359,0,0,1-.021.536v.161c-.016.228-.03.456-.051.692a24.465,24.465,0,0,1-4.293,11.86,2.415,2.415,0,0,0,.6,3.362h0a2.377,2.377,0,0,0,1.371.432,2.415,2.415,0,0,0,1.986-1.033,29.638,29.638,0,0,0,2.452-4.244l.019-.035a.922.922,0,0,0,.048-.094c.057-.121.113-.247.167-.373l.083-.185q.171-.39.33-.781l.043-.1c.1-.242.19-.488.281-.733l.065-.177c.078-.212.156-.432.231-.652l.091-.268c.059-.183.115-.368.171-.556.041-.126.081-.254.118-.383s.083-.295.124-.443l.137-.515.064-.268.013-.054c.051-.215.1-.429.148-.646l.043-.2c.053-.269.1-.513.153-.776l.013-.07c.151-.826.269-1.636.336-2.414a29.035,29.035,0,0,0-.043-5.968Z" fill="#fff"/>
      </g>
    </g>
  </g>
  <text id="Scholarship" transform="translate(249 106.116)" fill="#fff" font-size="35" font-family="Montserrat-Bold, Montserrat" font-weight="700"><tspan x="0" y="0">Scholarship</tspan></text>
</svg>
